<svg width="160" height="64" viewBox="0 0 160 64" fill="none" xmlns="http://www.w3.org/2000/svg">
<path d="M13.7979 45.3966V41.9839L19.8909 35.5535C20.5017 34.8864 20.9483 34.3526 21.2306 33.9421C21.513 33.5315 21.6516 33.1261 21.6516 32.7207C21.6516 32.2639 21.5078 31.8996 21.2204 31.6173C20.9329 31.335 20.5325 31.1965 20.0244 31.1965C18.9413 31.1965 18.1148 31.838 17.5553 33.1107L13.5104 30.8526C14.1059 29.4721 14.9785 28.4201 16.1386 27.7016C17.2935 26.9831 18.5717 26.6239 19.973 26.6239C21.7234 26.6239 23.2223 27.1422 24.4748 28.184C25.7273 29.2258 26.3535 30.6474 26.3535 32.4487C26.3535 33.5161 26.102 34.5015 25.6041 35.3996C25.1062 36.3028 24.3721 37.2522 23.4071 38.2478L20.9073 40.8497H26.6666V45.3915H13.803L13.7979 45.3966Z" fill="#D32D54"/>
<path d="M42.3637 42.5894V38.3094L42.3689 38.3043H40.5312V34.9993H35.8601V38.3043H32.9444L38.4831 27.0191H33.2832L27.7959 38.2632V42.5894H35.8549V45.3966H40.5261V42.5894H42.3637Z" fill="#D32D54"/>
<path fill-rule="evenodd" clip-rule="evenodd" d="M28.0063 8C12.5402 8 0 20.5374 0 36C0 51.4626 12.5402 64 28.0063 64C43.4724 64 56.0127 51.4626 56.0127 36C56.0127 20.5374 43.4776 8 28.0063 8ZM28.0063 16.0007C33.3499 16.0007 38.3752 18.0792 42.1532 21.8563C45.9312 25.6334 48.0101 30.6576 48.0101 36C48.0101 41.3424 45.9312 46.3666 42.1532 50.1437C38.3752 53.9208 33.3499 55.9993 28.0063 55.9993C22.6628 55.9993 17.6374 53.9208 13.8594 50.1437C10.0815 46.3666 8.00254 41.3424 8.00254 36C8.00254 30.6576 10.0815 25.6334 13.8594 21.8563C17.6374 18.0792 22.6628 16.0007 28.0063 16.0007Z" fill="#D32D54"/>
<path d="M159.999 6.01828H158.008V6.02341H151.999V4.02245H153.99C153.99 1.80087 155.796 0 158.013 0V2.03688C156.92 2.03688 156.032 2.92448 156.032 4.01732H159.999V6.01828Z" fill="#234EC4"/>
<path d="M119.997 24.0167H135.998C140.416 24.0167 143.998 27.5979 143.998 32.0154V40.0141C143.998 44.4316 140.416 48.0128 135.998 48.0128H95.995C91.5765 48.0128 87.9945 44.4316 87.9945 40.0141V8.01924H95.995V40.0141H103.996V24.0167H111.996V40.0141H135.998V32.0154H119.997V24.0167Z" fill="#234EC4"/>
<path d="M135.998 12.0212C135.998 14.2274 134.207 16.018 132 16.018C129.793 16.018 128.002 14.2274 128.002 12.0212C128.002 9.81497 129.793 8.02437 132 8.02437C134.207 8.02437 135.998 9.81497 135.998 12.0212Z" fill="#234EC4"/>
<path d="M107.998 56.0064C105.792 56.0064 104.001 57.797 104.001 60.0032C104.001 62.2094 105.792 64 107.998 64C110.205 64 111.996 62.2094 111.996 60.0032C111.996 57.797 110.205 56.0064 107.998 56.0064Z" fill="#234EC4"/>
<path d="M71.9986 48.0128V24.0167H79.9991V48.0128C79.9991 52.4303 76.4171 56.0115 71.9986 56.0115H63.998V48.0128H71.9986Z" fill="#234EC4"/>
<path d="M151.999 8.01924V48.0128H159.999V8.01924H151.999Z" fill="#234EC4"/>
</svg>
