<svg width="109" height="28" viewBox="0 0 109 28" fill="none" xmlns="http://www.w3.org/2000/svg">
<path d="M6.88753 16.9919V18.6982L13.3091 18.6981V16.4276H10.4352L11.6823 15.1276C12.1077 14.7025 12.4761 14.2238 12.7784 13.7036C13.0279 13.2522 13.1565 12.7438 13.1518 12.2278C13.1513 11.3265 12.839 10.6156 12.2149 10.095C11.584 9.57218 10.7859 9.29485 9.96719 9.31398C9.29134 9.30763 8.62768 9.4943 8.05396 9.85212C7.46362 10.2272 7.00537 10.778 6.7435 11.4272L8.762 12.5559C9.04116 11.9172 9.45178 11.5978 9.99386 11.5978C10.1021 11.5916 10.2106 11.607 10.3129 11.6431C10.4152 11.6791 10.5093 11.7352 10.5899 11.8079C10.6622 11.8797 10.7188 11.9658 10.7559 12.0607C10.7931 12.1556 10.8101 12.2572 10.8057 12.3591C10.7996 12.5791 10.7265 12.792 10.5963 12.9693C10.3923 13.2533 10.169 13.5229 9.92807 13.7762L6.88753 16.9919Z" fill="#234EC4"/>
<path d="M21.1448 15.1549V17.2941H20.2273V18.6986H17.8947V17.2941H13.8715V15.1319L16.6098 9.51129H19.2051L16.4402 15.1549H17.8947V13.5011H20.2272V15.1549H21.1448Z" fill="#234EC4"/>
<path fill-rule="evenodd" clip-rule="evenodd" d="M6.21271 2.35942C8.51155 0.821085 11.2143 1.13225e-09 13.979 1.13225e-09C15.8148 -2.33824e-05 17.6326 0.362081 19.3286 1.06564C21.0246 1.7692 22.5657 2.80043 23.8638 4.10045C25.1618 5.40048 26.1915 6.94383 26.894 8.6424C27.5965 10.341 27.9581 12.1615 27.9581 14C27.9581 16.7689 27.1382 19.4757 25.6022 21.778C24.0662 24.0803 21.8829 25.8747 19.3286 26.9343C16.7743 27.9939 13.9635 28.2712 11.2519 27.731C8.5402 27.1908 6.04938 25.8574 4.09437 23.8995C2.13937 21.9416 0.807994 19.447 0.26861 16.7313C-0.270775 14.0155 0.00605687 11.2006 1.0641 8.64243C2.12214 6.08426 3.91387 3.89776 6.21271 2.35942ZM20.4451 6.10917C18.6223 4.61086 16.3372 3.79188 13.979 3.79178C12.6399 3.78814 11.3134 4.05051 10.0762 4.56369C8.83903 5.07687 7.71574 5.83068 6.77135 6.7815C5.10387 8.45142 4.06612 10.6487 3.83492 12.999C3.60373 15.3493 4.1934 17.7072 5.50346 19.6709C6.81352 21.6346 8.76291 23.0826 11.0195 23.7682C13.2761 24.4538 15.7002 24.3346 17.8789 23.4309C20.0575 22.5272 21.8559 20.8949 22.9676 18.8122C24.0793 16.7294 24.4355 14.325 23.9756 12.0087C23.5156 9.69241 22.2679 7.60748 20.4451 6.10917Z" fill="#234EC4"/>
<path d="M51.2047 22.2509V25.9565L52.1431 25.957C53.1554 25.9772 54.1648 25.8405 55.1353 25.5517C55.93 25.3088 56.6475 24.8622 57.2168 24.256C57.8016 23.5957 58.2182 22.8035 58.431 21.9469C58.7135 20.8159 58.845 19.6525 58.8222 18.4869V7.38313H54.8329V18.4285C54.8451 19.0833 54.7942 19.7377 54.6808 20.3827C54.6142 20.8043 54.4483 21.204 54.1968 21.5487C53.9755 21.8236 53.6712 22.0191 53.3295 22.1059C52.9087 22.21 52.4762 22.2588 52.0429 22.2509H51.2047Z" fill="#234EC4"/>
<path fill-rule="evenodd" clip-rule="evenodd" d="M62.1547 22.2507V25.9565H64.0189C65.6088 25.9565 66.929 25.8021 67.9794 25.4935C68.9161 25.2439 69.7888 24.7971 70.5393 24.1828C71.1836 23.6333 71.6888 22.9387 72.0135 22.156C72.3548 21.3181 72.5879 20.4399 72.707 19.5429H77.3475C77.762 19.543 78.1789 19.5286 78.598 19.4996C79.0061 19.4725 79.4105 19.4046 79.8052 19.2971C80.1871 19.1925 80.5523 19.0341 80.8898 18.8267C81.2438 18.6033 81.5487 18.3102 81.7861 17.9651C81.9743 18.2758 82.2137 18.5524 82.4942 18.783C82.7389 18.9819 83.0119 19.143 83.3041 19.261C83.5826 19.3719 83.874 19.4474 84.1713 19.4855C84.4506 19.5216 84.7319 19.5407 85.0136 19.5429H86.3676C87.042 19.5429 87.6611 19.526 88.225 19.4923C88.7383 19.4664 89.2483 19.3944 89.7488 19.2772C90.1753 19.1768 90.5845 19.0134 90.9629 18.7923C91.3288 18.5714 91.6481 18.281 91.9028 17.9375C92.7414 19.0087 94.2113 19.5443 96.3125 19.5443C96.6698 19.5444 97.0269 19.525 97.3822 19.4864C97.7343 19.4487 98.081 19.371 98.4156 19.2549C99.1332 19.005 99.7599 18.5461 100.215 17.9372C100.403 18.1831 100.616 18.4087 100.851 18.6103C101.098 18.8178 101.373 18.9885 101.668 19.1171C102.015 19.2672 102.38 19.3741 102.753 19.4355C103.228 19.513 103.709 19.5492 104.191 19.544H108.803V7.38313H104.843V16.041H102.978C102.626 16.0508 102.275 16.0068 101.937 15.9107C101.694 15.8401 101.474 15.7047 101.301 15.5189C101.14 15.3307 101.03 15.1036 100.983 14.86C100.921 14.5478 100.892 14.2299 100.896 13.9116V8.7146H96.9064V14.563C96.9171 14.8194 96.8675 15.0748 96.7616 15.3086C96.6708 15.4906 96.5338 15.6455 96.3642 15.7577C96.1778 15.8753 95.9684 15.9517 95.7501 15.9817C95.487 16.0222 95.2211 16.0416 94.9549 16.0398C94.1744 16.0398 93.6131 15.8516 93.2709 15.4753C92.9286 15.0989 92.7575 14.5777 92.7575 13.9116V8.7146H88.7678V14.5637C88.7779 14.8364 88.7386 15.1086 88.6521 15.3674C88.5801 15.5594 88.4411 15.7188 88.2609 15.8163C88.0358 15.9289 87.7896 15.9931 87.5383 16.0045C87.2393 16.0283 86.8683 16.0401 86.4252 16.0401H85.0664C84.6538 16.048 84.2416 16.0091 83.8377 15.9242C83.553 15.8679 83.287 15.741 83.0641 15.555C82.8712 15.3782 82.7332 15.1494 82.6667 14.8962C82.5832 14.5748 82.5443 14.2435 82.5509 13.9116V7.38313H78.5614V14.2592C78.5687 14.5683 78.5371 14.8771 78.4673 15.1782C78.4206 15.3881 78.3095 15.578 78.1496 15.7214C77.9821 15.8548 77.7827 15.9421 77.5712 15.9746C77.2821 16.0223 76.9894 16.0441 76.6965 16.0398H72.8946V14.621C72.9036 13.5442 72.7994 12.4695 72.5836 11.4146C72.4082 10.5219 72.0622 9.67147 71.5648 8.91013C71.0975 8.21466 70.4572 7.65318 69.7072 7.28109C68.9411 6.89502 67.9991 6.70199 66.8812 6.70199C65.9631 6.68389 65.053 6.87714 64.2212 7.26684C63.4767 7.62299 62.8146 8.13083 62.2772 8.75788C61.7477 9.38296 61.3407 10.1025 61.0775 10.8788C60.8048 11.6632 60.6656 12.4878 60.6656 13.3184C60.6403 14.3032 60.7946 15.2844 61.1209 16.2137C61.3747 16.9367 61.8 17.5872 62.3603 18.1092C62.9205 18.6311 63.599 19.0091 64.3373 19.2104C65.1459 19.4403 65.9832 19.5524 66.8236 19.5434H68.7162C68.6283 19.8516 68.5147 20.1518 68.3766 20.4409C68.2114 20.7799 67.9776 21.0807 67.6899 21.3242C67.3234 21.6259 66.9011 21.8522 66.447 21.99C65.7902 22.1826 65.1073 22.2705 64.4232 22.2507H62.1547ZM65.0811 11.1249C65.2408 10.8585 65.4677 10.6389 65.739 10.4881C66.0529 10.3355 66.3982 10.2591 66.747 10.2641C67.0959 10.2691 67.4388 10.3558 67.7483 10.5173C68.0288 10.6872 68.2585 10.9297 68.4133 11.2192C68.59 11.5568 68.7097 11.9212 68.7676 12.2979C68.8424 12.7499 68.8785 13.2075 68.8757 13.6657V16.0398H66.8521C66.5471 16.0548 66.2423 16.0059 65.9572 15.8963C65.6721 15.7866 65.413 15.6186 65.1965 15.403C64.7871 14.9777 64.5824 14.3021 64.5824 13.3761C64.5787 12.9507 64.6199 12.526 64.7054 12.1093C64.7739 11.7622 64.901 11.4293 65.0811 11.1249Z" fill="#234EC4"/>
<path d="M79.1743 25.2395C79.354 25.4188 79.5649 25.5636 79.7966 25.6669C80.0397 25.7719 80.3021 25.8257 80.5668 25.8257C80.8316 25.8257 81.0935 25.7716 81.3366 25.6666C81.8105 25.4626 82.1882 25.0843 82.3919 24.6097C82.4968 24.3675 82.5509 24.1063 82.5509 23.8424C82.5509 23.5784 82.4968 23.3172 82.3919 23.075C82.289 22.8388 82.1445 22.623 81.9652 22.438C81.7867 22.2543 81.5727 22.1089 81.3363 22.0107C80.843 21.8081 80.2899 21.8081 79.7966 22.0107C79.5628 22.1101 79.3512 22.2554 79.1743 22.438C78.9957 22.622 78.8535 22.8381 78.755 23.075C78.6053 23.4373 78.5653 23.8356 78.6398 24.2204C78.7144 24.6052 78.9002 24.9596 79.1743 25.2395Z" fill="#234EC4"/>
<path d="M34.501 19.2829C35.4965 19.4737 36.5089 19.5611 37.5222 19.5436H50.9369V7.38313H46.947V16.0399H38.6504C38.0831 16.0458 37.5159 16.0193 36.9516 15.9605C36.5817 15.9302 36.221 15.8295 35.8889 15.6637C35.6447 15.5362 35.451 15.3294 35.3394 15.0773C35.2241 14.7799 35.17 14.4623 35.1805 14.1434V9.66998H31.1906V14.7081C31.173 15.4656 31.278 16.221 31.5016 16.9449C31.6943 17.5376 32.0591 18.0593 32.5494 18.4433C33.128 18.8677 33.7954 19.1548 34.501 19.2829Z" fill="#234EC4"/>
<path d="M42.1986 5.42055C42.378 5.60012 42.589 5.74501 42.8209 5.84793C43.064 5.95293 43.3255 6.00727 43.5902 6.00727C43.855 6.00727 44.1169 5.95311 44.3601 5.84811C44.8339 5.64409 45.2117 5.26582 45.4154 4.79123C45.5202 4.54903 45.5743 4.28787 45.5743 4.0239C45.5743 3.75993 45.5202 3.49876 45.4154 3.25657C45.3122 3.02042 45.1677 2.80468 44.9886 2.61959C44.8103 2.43623 44.5968 2.29086 44.3609 2.19221C43.8677 1.98962 43.3146 1.98962 42.8213 2.19221C42.5876 2.29186 42.376 2.43715 42.199 2.61959C42.0205 2.80372 41.8783 3.01988 41.7797 3.25674C41.6783 3.49974 41.6267 3.7607 41.628 4.02408C41.626 4.54689 41.8312 5.04914 42.1986 5.42055Z" fill="#234EC4"/>
<path d="M37.2918 5.42055C37.4744 5.59918 37.6873 5.74389 37.9205 5.84793C38.1639 5.95598 38.4274 6.01063 38.6936 6.00784C38.955 6.00972 39.2138 5.95543 39.4525 5.84864C39.6841 5.74561 39.8948 5.60073 40.074 5.42126C40.2544 5.23995 40.3991 5.02628 40.5007 4.79141C40.6057 4.54927 40.6599 4.28808 40.6599 4.02408C40.6599 3.76007 40.6057 3.49889 40.5007 3.25674C40.3979 3.02038 40.2533 2.80453 40.074 2.61959C39.8949 2.43475 39.6804 2.28817 39.4432 2.1887C39.2061 2.08923 38.9513 2.03893 38.6942 2.04084C38.4285 2.03775 38.1651 2.08927 37.9201 2.19221C37.6852 2.29298 37.4717 2.43808 37.2914 2.61959C37.1073 2.80385 36.9615 3.02276 36.8622 3.26371C36.7629 3.50466 36.7122 3.76289 36.713 4.02354C36.7116 4.2869 36.7633 4.54784 36.865 4.79069C36.963 5.02752 37.1082 5.24184 37.2918 5.42055Z" fill="#234EC4"/>
</svg>
